<!-- Generator: Adobe Illustrator 17.1.0, SVG Export Plug-In  -->
<svg version="1.1"
	 xmlns="http://www.w3.org/2000/svg" xmlns:xlink="http://www.w3.org/1999/xlink" xmlns:a="http://ns.adobe.com/AdobeSVGViewerExtensions/3.0/"
	 x="0px" y="0px" width="78px" height="78px" viewBox="0 0 78 78" enable-background="new 0 0 78 78" xml:space="preserve">
<defs>
</defs>
<path fill="#111111" d="M39,0C17.5,0,0,17.5,0,39s17.5,39,39,39c21.5,0,39-17.5,39-39S60.5,0,39,0z M35.5,8.7c2.6,0,2.9,2.4,2.9,3.2
	v54.2c0,0.7-0.2,3.2-2.9,3.2c-0.2,0-0.4,0-0.5,0c-15.1-2-26.5-15-26.5-30.2C8.5,23.8,19.9,10.8,35,8.8C35.2,8.7,35.3,8.7,35.5,8.7z"
	/>
</svg>
